<?xml version="1.0" encoding="utf-8"?>
<!-- Svg Vector Icons : http://www.onlinewebfonts.com/icon -->
<!DOCTYPE svg PUBLIC "-//W3C//DTD SVG 1.1//EN" "http://www.w3.org/Graphics/SVG/1.1/DTD/svg11.dtd">
<svg version="1.1" xmlns="http://www.w3.org/2000/svg" xmlns:xlink="http://www.w3.org/1999/xlink" x="0px" y="0px" viewBox="0 0 1000 1000" enable-background="new 0 0 1000 1000" xml:space="preserve" id="board">
<metadata> Svg Vector Icons : http://www.onlinewebfonts.com/icon </metadata>
<g><path d="M928.8,70.9H990V7.4H10v63.5h61.3c0,51.6,0,635.7,0,635.7c-3.8,75.8-10.4,63.6,122.5,63.6h183.7L255,992.6l92.2-0.4l122.1-222.1h61.3l122.2,222.1l92.2,0.4L622.5,770.2h245c69.8,1,61.3,7.5,61.3-95.4C928.8,674.8,928.8,126,928.8,70.9z M868,70.6H132.1c0,40.2,0.4,604.2,0.4,604.2c0,39.1-6.3,31.8,30.6,31.8h673.7c36.9,0,30.6,7.3,30.6-31.8C867.5,674.8,868,134.7,868,70.6z M285.7,579.5c0-17.5,13.7-31.8,30.6-31.8h275.6c16.9,0,30.6,14.2,30.6,31.8c0,17.6-13.7,31.8-30.6,31.8H316.3C299.4,611.2,285.7,597,285.7,579.5z M285.7,388.8c0-17.5,13.7-31.8,30.6-31.8h367.5c16.9,0,30.6,14.2,30.6,31.8c0,17.5-13.7,31.8-30.6,31.8H316.3C299.4,420.5,285.7,406.3,285.7,388.8z M285.7,198.1c0-17.6,13.7-31.8,30.6-31.8h367.5c16.9,0,30.6,14.2,30.6,31.8c0,17.5-13.7,31.8-30.6,31.8H316.3C299.4,229.9,285.7,215.6,285.7,198.1z"/><path d="M71.3,706.6h857.5v63.6H71.3V706.6z"/></g>
</svg>