<?xml version="1.0" encoding="utf-8"?>
<!-- Svg Vector Icons : http://www.onlinewebfonts.com/icon -->
<!DOCTYPE svg PUBLIC "-//W3C//DTD SVG 1.1//EN" "http://www.w3.org/Graphics/SVG/1.1/DTD/svg11.dtd">
<svg version="1.1" xmlns="http://www.w3.org/2000/svg" xmlns:xlink="http://www.w3.org/1999/xlink" x="0px" y="0px" viewBox="0 0 1000 1000" enable-background="new 0 0 1000 1000" xml:space="preserve" id="circle">
<metadata> Svg Vector Icons : http://www.onlinewebfonts.com/icon </metadata>
<g><g><path d="M990,500c0,88.9-21.9,170.9-65.7,246C880.5,821,821,880.5,746,924.3C670.9,968.1,588.9,990,500,990s-170.9-21.9-246-65.7S119.5,821,75.7,746C31.9,670.9,10,588.9,10,500s21.9-170.9,65.7-246C119.5,179,179,119.5,254,75.7C329.1,31.9,411.1,10,500,10s170.9,21.9,246,65.7C821,119.5,880.5,179,924.3,254S990,411.1,990,500z"/></g></g>
</svg>