<?xml version="1.0" encoding="utf-8"?>
<!-- Svg Vector Icons : http://www.onlinewebfonts.com/icon -->
<!DOCTYPE svg PUBLIC "-//W3C//DTD SVG 1.1//EN" "http://www.w3.org/Graphics/SVG/1.1/DTD/svg11.dtd">
<svg version="1.1" xmlns="http://www.w3.org/2000/svg" xmlns:xlink="http://www.w3.org/1999/xlink" x="0px" y="0px" viewBox="0 0 1000 1000" enable-background="new 0 0 1000 1000" xml:space="preserve" id="elevator">
<metadata> Svg Vector Icons : http://www.onlinewebfonts.com/icon </metadata>
<g><g transform="translate(0.000000,511.000000) scale(0.100000,-0.100000)"><path d="M2575.5,4971.3c-32.6-20.4-458.5-436.1-941.4-923.1c-625.6-625.6-882.3-896.6-882.3-927.2c0-24.4,18.3-55,38.7-67.2c24.5-12.2,273.1-20.4,662.3-20.4h621.5l6.1-564.5c8.1-786.6-30.6-745.8,686.7-735.6l474.8,6.1l69.3,75.4l69.3,77.4v570.6v570.6h613.4c383.1,0,627.6,8.2,652.1,20.4c93.7,50.9,61.1,91.7-884.4,1035.2L2838.4,5010h-99.8C2673.4,5010,2614.3,4995.7,2575.5,4971.3z"/><path d="M6771.3,4950.9c-122.3-75.4-130.4-122.3-130.4-723.4v-542h-627.6c-680.6,0-715.3-6.1-690.8-103.9c14.3-55,1719.9-1742.3,1829.9-1809.5c77.4-46.9,165.1-53,246.6-16.3c30.6,14.3,458.5,421.8,951.6,908.8c927.2,910.9,957.8,947.6,859.9,1000.5c-24.4,12.2-269,20.4-652.1,20.4H7945V4256v570.6l-69.3,77.4l-69.3,75.4l-487,6.1C6873.2,4989.6,6830.4,4987.6,6771.3,4950.9z"/><path d="M1831.8,1058.8c-99.8-30.6-177.3-81.5-258.8-171.2c-156.9-171.2-148.8-8.2-148.8-2744.9c0-2736.7-8.1-2573.7,148.8-2744.8c44.8-48.9,120.2-110,167.1-134.5l81.5-44.8l3148.3-6.1c3484.6-6.1,3272.6-12.2,3437.7,128.4c46.9,38.7,108,118.2,136.5,177.3l53,106v2518.7V661.5l-53,105.9c-28.5,59.1-89.7,136.5-134.5,175.2c-167.1,144.7,71.3,134.5-3396.9,132.5C3290.8,1075.1,1860.3,1066.9,1831.8,1058.8z M3343.8,368c140.6-69.3,252.7-177.3,315.8-305.7c48.9-99.9,57.1-140.6,57.1-289.4c0-207.9-44.8-319.9-177.3-452.4c-140.6-142.7-258.8-189.5-464.6-189.5c-146.7,2-189.5,10.2-279.2,57.1c-236.4,122.3-362.7,326-362.7,584.8c0,122.3,10.2,175.2,53,266.9c81.5,173.2,232.3,303.6,425.9,366.8C3003.5,437.3,3246,414.9,3343.8,368z M5300,368c140.6-69.3,252.7-177.3,315.8-305.7c48.9-99.9,57.1-140.6,57.1-289.4c0-207.9-44.8-319.9-177.3-452.4C5355-822.1,5236.8-868.9,5031-868.9c-146.7,2-189.5,10.2-279.2,57.1c-236.4,122.3-362.7,326-362.7,584.8c0,122.3,10.2,175.2,53,266.9c81.5,173.2,232.3,303.6,425.9,366.8C4959.7,437.3,5202.2,414.9,5300,368z M7254.2,366c142.6-67.3,254.7-173.2,317.9-303.6c48.9-99.9,57.1-140.6,57.1-289.4c0-207.9-44.8-319.9-177.3-452.4c-136.5-136.5-258.8-187.5-454.4-189.5c-193.6,0-342.3,59.1-468.7,183.4c-246.6,246.6-246.6,668.4-2,912.9c77.4,79.5,203.8,152.8,307.7,179.3C6940.4,435.2,7152.3,414.9,7254.2,366z M3586.3-1184.8c38.7-10.2,97.8-48.9,132.5-83.5l59.1-61.1l6.1-652.1c6.1-627.7,4.1-656.2-36.7-721.4c-42.8-69.3-148.8-132.4-222.1-132.4c-42.8,0-42.8-4.1-42.8-546.1c0-611.3-8.1-648-144.7-721.4c-106-57.1-377-50.9-468.7,10.2c-134.5,87.6-140.6,124.3-140.6,719.3v531.9l-81.5,12.2c-97.8,12.2-169.1,55-218,130.4c-32.6,48.9-36.7,122.3-42.8,662.3c-6.1,570.6-4.1,611.3,34.6,698.9c32.6,73.4,59.1,101.9,128.4,132.5c77.4,34.6,134.5,40.8,525.7,40.8C3315.2-1164.4,3545.5-1174.6,3586.3-1184.8z M5542.5-1184.8c38.7-10.2,97.8-48.9,132.5-83.5l59.1-61.1l6.1-652.1c6.1-627.7,4.1-656.2-36.7-721.4c-42.8-69.3-148.8-132.4-222.1-132.4c-42.8,0-42.8-4.1-42.8-546.1c0-611.3-8.2-648-144.7-721.4c-106-57.1-377-50.9-468.7,10.2c-134.5,87.6-140.6,124.3-140.6,719.3v531.9l-81.5,12.2c-97.8,12.2-169.1,55-218,130.4c-32.6,48.9-36.7,122.3-42.8,662.3c-6.1,570.6-4.1,611.3,34.6,698.9c32.6,73.4,59.1,101.9,128.4,132.5c77.4,34.6,134.5,40.8,525.7,40.8C5271.5-1164.4,5501.7-1174.6,5542.5-1184.8z M7498.7-1184.8c38.7-10.2,97.8-48.9,132.5-83.5l59.1-61.1l6.1-652.1c6.1-627.7,4.1-656.2-36.7-721.4c-42.8-69.3-148.8-132.4-222.1-132.4c-42.8,0-42.8-4.1-42.8-546.1c0-611.3-8.2-648-144.7-721.4c-106-57.1-377-50.9-468.7,10.2c-134.5,87.6-140.6,124.3-140.6,719.3v531.9l-81.5,12.2c-97.8,12.2-169.1,55-218,130.4c-32.6,48.9-36.7,122.3-42.8,662.3c-6.1,570.6-4.1,611.3,34.6,698.9c32.6,73.4,59.1,101.9,128.4,132.5c77.4,34.6,134.5,40.8,525.8,40.8C7227.7-1164.4,7458-1174.6,7498.7-1184.8z"/></g></g>
</svg>