<?xml version="1.0" encoding="utf-8"?>
<!-- Svg Vector Icons : http://www.onlinewebfonts.com/icon -->
<!DOCTYPE svg PUBLIC "-//W3C//DTD SVG 1.1//EN" "http://www.w3.org/Graphics/SVG/1.1/DTD/svg11.dtd">
<svg version="1.1" xmlns="http://www.w3.org/2000/svg" xmlns:xlink="http://www.w3.org/1999/xlink" x="0px" y="0px" viewBox="0 0 1000 1000" enable-background="new 0 0 1000 1000" xml:space="preserve" id="lab">
<metadata> Svg Vector Icons : http://www.onlinewebfonts.com/icon </metadata>
<g><g transform="translate(0.000000,511.000000) scale(0.100000,-0.100000)"><path d="M421.6,2879.4c-122.5-43.8-234.1-140-280-240.6C102.2,2553.4,100,2446.2,100,110c0-2336.3,2.2-2443.5,41.6-2528.7c45.9-100.6,157.5-196.9,280-240.6c122.5-43.8,9034.4-43.8,9156.9,0c122.5,43.8,234.1,140,280,240.6c39.4,85.3,41.6,192.5,41.6,2528.7c0,2336.2-2.2,2443.4-41.6,2528.8c-45.9,100.6-157.5,196.9-280,240.6C9455.9,2923.1,544.1,2923.1,421.6,2879.4z M9501.9,2525l48.1-32.8V110v-2382.2l-48.1-32.8c-43.8-30.6-507.5-35-4501.9-35c-3994.4,0-4458.1,4.4-4501.9,35l-48.1,32.8V110v2382.2l48.1,32.8c43.8,30.6,507.5,35,4501.9,35C8994.4,2560,9458.1,2555.6,9501.9,2525z"/><path d="M1001.3,2175c-234.1-120.3-264.7-433.1-56.9-592.8c210-159.7,520.6-21.9,549.1,242.8C1524.1,2085.3,1230.9,2293.1,1001.3,2175z"/><path d="M8707.8,2179.4c-225.3-98.4-275.6-393.8-96.3-564.4c148.8-142.2,334.7-140,479.1,4.4C9361.9,1890.6,9060,2332.5,8707.8,2179.4z"/><path d="M2910.9,1505.6c-6.6-15.3-8.8-654.1-6.6-1417.5l6.6-1389.1h579.7h579.7l6.6,203.4l6.6,201.2h-374.1h-371.9V317.8v1214.1h-207.8C2983.1,1531.9,2917.5,1523.1,2910.9,1505.6z"/><path d="M4617.2,1510c-15.3-24.1-448.4-2712.5-448.4-2780.3c0-37.2,17.5-41.6,196.9-41.6h194.7l13.1,72.2c6.6,37.2,24.1,153.1,39.4,255.9l26.3,185.9l275.6,6.6l273.4,6.6l28.5-203.5c15.3-111.6,32.8-229.7,39.4-262.5l13.1-61.3h214.4c185.9,0,216.6,4.4,216.6,35c0,61.3-437.5,2767.2-450.6,2789.1C5234.1,1538.4,4634.7,1538.4,4617.2,1510z M5024.1,278.4c54.7-363.1,94.1-669.4,85.3-678.1s-102.8-15.3-210-10.9c-157.5,4.4-194.7,13.1-190.3,39.4c21.9,210,194.7,1327.8,203.4,1321.3C4919.1,943.4,4969.4,641.6,5024.1,278.4z"/><path d="M5918.7,110v-1428.4l433.1,13.1c236.2,6.6,465.9,21.9,507.5,35c146.6,43.8,269.1,140,339.1,266.9l65.6,118.1v371.9c0,347.8-4.4,378.4-52.5,479.1c-32.8,65.6-87.5,131.3-144.4,170.6l-94.1,65.6l76.6,67.8c133.4,118.1,168.4,212.2,177.2,498.8c10.9,321.6-24.1,463.7-146.6,586.2c-133.4,133.4-234,157.5-728.4,170.6l-433.1,13.1V110z M6697.5,1083.4c78.8-52.5,100.6-144.4,91.9-369.7c-6.6-194.7-10.9-214.4-65.6-269.1c-52.5-50.3-83.1-61.2-214.4-67.8l-153.1-8.8v374.1v374.1H6505C6599.1,1116.2,6669.1,1105.3,6697.5,1083.4z M6684.4-49.7c129.1-43.8,155.3-129.1,148.8-459.4c-6.6-277.8-6.6-282.2-67.8-334.7c-54.7-46-83.1-52.5-236.2-52.5h-172.8v437.5v437.5l126.9-2.2C6550.9-23.4,6642.8-34.4,6684.4-49.7z"/><path d="M1007.8-1320.6c-220.9-96.3-273.4-389.4-100.6-562.2c142.2-144.4,339.1-142.2,483.4,2.2C1664.1-1607.2,1360-1167.5,1007.8-1320.6z"/><path d="M8707.8-1320.6c-225.3-98.4-275.6-393.8-96.3-564.4c148.8-142.2,334.7-140,479.1,4.4C9361.9-1609.4,9060-1167.5,8707.8-1320.6z"/></g></g>
</svg>