<?xml version="1.0" encoding="utf-8"?>
<!-- Generator: Adobe Illustrator 16.0.0, SVG Export Plug-In . SVG Version: 6.00 Build 0)  -->
<!DOCTYPE svg PUBLIC "-//W3C//DTD SVG 1.1//EN" "http://www.w3.org/Graphics/SVG/1.1/DTD/svg11.dtd">
<svg version="1.1" id="layer_1" xmlns="http://www.w3.org/2000/svg" xmlns:xlink="http://www.w3.org/1999/xlink" x="0px" y="0px"
	 width="612px" height="792px" viewBox="0 0 612 792" enable-background="new 0 0 612 792" xml:space="preserve">
<g id="lab_1_">
	<g transform="translate(0.000000,511.000000) scale(0.100000,-0.100000)">
		<path d="M258.018,2844.873c-74.971-26.807-143.267-85.679-171.357-147.246C62.549,2645.361,61.201,2579.756,61.201,1150
			c0-1429.814,1.348-1495.42,25.459-1547.568c28.091-61.563,96.387-120.498,171.357-147.246
			c74.971-26.807,5529.052-26.807,5604.023,0s143.271,85.684,171.357,147.246c24.121,52.207,25.459,117.813,25.459,1547.568
			s-1.338,1495.361-25.459,1547.627c-28.086,61.567-96.387,120.503-171.357,147.246
			C5787.011,2871.616,332.988,2871.616,258.018,2844.873z M5815.166,2627.979l29.434-20.073V1150V-307.91l-29.434-20.068
			c-26.807-18.73-310.596-21.426-2755.166-21.426s-2728.359,2.695-2755.161,21.426L275.4-307.91V1150v1457.905l29.438,20.073
			c26.807,18.73,310.591,21.421,2755.161,21.421S5788.359,2646.709,5815.166,2627.979z"/>
		<path d="M612.798,2413.779c-143.271-73.623-161.997-265.059-34.824-362.793c128.521-97.734,318.608-13.403,336.05,148.594
			C932.749,2358.882,753.31,2486.055,612.798,2413.779z"/>
		<path d="M5329.169,2416.475c-137.881-60.225-168.662-241.006-58.936-345.415c91.074-87.026,204.844-85.679,293.213,2.695
			C5729.482,2239.727,5544.716,2510.171,5329.169,2416.475z"/>
		<path d="M1781.47,2004.106c-4.038-9.36-5.386-400.308-4.038-867.505l4.038-850.136h354.775h354.78l4.038,124.482l4.038,123.135
			h-228.95h-227.603v743.091v743.032h-127.173C1825.659,2020.205,1785.508,2014.819,1781.47,2004.106z"/>
		<path d="M2825.727,2006.802c-9.365-14.751-274.424-1660.053-274.424-1701.548c0-22.764,10.713-25.459,120.503-25.459h119.16
			l8.018,44.189c4.038,22.764,14.746,93.691,24.111,156.611l16.094,113.77l168.667,4.043l167.319,4.033l17.441-124.541
			c9.365-68.301,20.078-140.576,24.121-160.645l8.008-37.52h131.221c113.77,0,132.559,2.695,132.559,21.416
			c0,37.52-267.754,1693.53-275.771,1706.933C3203.271,2024.18,2836.435,2024.18,2825.727,2006.802z M3074.746,1253.062
			c33.477-222.222,57.588-409.673,52.207-414.995c-5.391-5.332-62.91-9.365-128.521-6.67
			c-96.392,2.686-119.155,8.018-116.465,24.111c13.403,128.516,119.16,812.612,124.482,808.633
			C3010.488,1660.039,3041.274,1475.342,3074.746,1253.062z"/>
		<path d="M3622.246,1150V275.821l265.058,8.018c144.551,4.033,285.127,13.398,310.586,21.416
			c89.717,26.807,164.688,85.684,207.529,163.35l40.146,72.275v227.598c0,212.852-2.695,231.582-32.129,293.213
			c-20.068,40.146-53.545,80.352-88.369,104.404l-57.588,40.151l46.875,41.489c81.641,72.28,103.057,129.868,108.447,305.269
			c6.67,196.816-14.746,283.784-89.717,358.755c-81.641,81.641-143.213,96.387-445.781,104.404l-265.058,8.018V1150L3622.246,1150z
			 M4098.867,1745.723c48.232-32.134,61.572-88.374,56.25-226.26c-4.043-119.155-6.68-131.211-40.156-164.688
			c-32.129-30.781-50.85-37.456-131.211-41.494l-93.691-5.386v228.95v228.95h91.006
			C4038.652,1765.796,4081.484,1759.121,4098.867,1745.723z M4090.849,1052.266c79.014-26.807,95.049-79.013,91.064-281.152
			c-4.033-170.02-4.033-172.705-41.484-204.844c-33.477-28.145-50.859-32.129-144.561-32.129h-105.752v267.754v267.754l77.666-1.348
			C4009.15,1068.359,4065.39,1061.631,4090.849,1052.266z"/>
		<path d="M616.772,274.473C481.582,215.537,449.453,36.162,555.205-69.59c87.026-88.379,207.529-87.031,295.84,1.348
			C1018.428,99.073,832.319,368.174,616.772,274.473z"/>
		<path d="M5329.169,274.473c-137.881-60.225-168.662-241.006-58.936-345.41c91.074-87.031,204.844-85.684,293.213,2.695
			C5729.482,97.725,5544.716,368.174,5329.169,274.473z"/>
	</g>
</g>
<g id="Stairs">
	<path fill-rule="evenodd" clip-rule="evenodd" fill="#231815" d="M2.63,27.708C2.63,12.407,16.711,0,34.083,0
		c17.373,0,31.453,12.407,31.453,27.708c0,15.3-14.081,27.708-31.453,27.708C16.711,55.416,2.63,43.008,2.63,27.708"/>
	<path fill-rule="evenodd" clip-rule="evenodd" fill="#231815" d="M5.174,27.689c0-14.056,12.931-25.452,28.891-25.452
		c15.959,0,28.891,11.396,28.891,25.452c0,14.056-12.931,25.452-28.891,25.452C18.105,53.141,5.174,41.745,5.174,27.689z"/>
	<path fill="none" stroke="#FFFFFF" stroke-width="0.6388" stroke-miterlimit="22.9256" d="M5.174,27.689
		c0-14.056,12.931-25.452,28.891-25.452c15.959,0,28.891,11.396,28.891,25.452c0,14.056-12.931,25.452-28.891,25.452
		C18.105,53.141,5.174,41.745,5.174,27.689z"/>
	<polygon fill="#FFFFFF" points="21.728,21.348 21.728,10.372 21.728,10.038 22.105,10.038 25.633,10.044 26.01,10.044 
		26.01,10.375 26.01,17.909 31.515,17.909 31.889,17.909 31.889,17.921 32.44,17.921 32.82,17.921 32.82,18.255 32.82,25.826 
		38.322,25.826 38.696,25.826 38.696,25.838 39.253,25.838 39.631,25.838 39.631,26.172 39.631,33.746 45.132,33.746 45.509,33.746 
		45.509,33.758 46.061,33.758 46.438,33.758 46.438,34.095 46.438,45.043 46.438,45.377 46.061,45.377 42.533,45.377 42.156,45.377 
		42.156,45.043 42.156,37.521 35.723,37.521 35.343,37.521 35.343,37.185 35.343,29.599 28.913,29.599 28.536,29.599 28.536,29.265 
		28.536,21.682 22.105,21.682 21.728,21.682 	"/>
</g>
</svg>
