<?xml version="1.0" encoding="utf-8"?>
<!-- Svg Vector Icons : http://www.onlinewebfonts.com/icon -->
<!DOCTYPE svg PUBLIC "-//W3C//DTD SVG 1.1//EN" "http://www.w3.org/Graphics/SVG/1.1/DTD/svg11.dtd">
<svg version="1.1" xmlns="http://www.w3.org/2000/svg" xmlns:xlink="http://www.w3.org/1999/xlink" x="0px" y="0px" viewBox="0 0 1000 1000" enable-background="new 0 0 1000 1000" xml:space="preserve" id="m-washroom">
<metadata> Svg Vector Icons : http://www.onlinewebfonts.com/icon </metadata>
<g><g><path d="M500,206c54.1,0,98-43.9,98-98c0-54.1-43.9-98-98-98s-98,43.9-98,98C402,162.1,445.9,206,500,206z M792.9,577.6c-18.9-87-51.8-229.7-100.1-288.8C646,231.3,551.5,228.9,500,228.9l0,0c-51.5,0-146,2.4-192.9,59.9c-48.2,59.1-81.2,201.8-100.1,288.8c-10.4,48.2,56.5,65.9,74,17.4c26-72.2,46.1-132.8,90.1-183.1C394.4,554.3,309,802.2,304,941c0,27,22,49,49,49c20.9,0,38.7-13,45.8-31.5C421.2,880.8,500,664.4,500,664.4l0,0l0,0c0,0,78.8,216.4,101.2,294.1C608.3,977,626.1,990,647,990c27,0,49-22,49-49c-5-138.8-90.4-386.7-67.2-529.1c44,50.3,64.1,110.9,90.1,183.1C736.3,643.4,803.4,625.7,792.9,577.6L792.9,577.6z"/></g></g>
</svg>