<?xml version="1.0" encoding="utf-8"?>
<!-- Svg Vector Icons : http://www.onlinewebfonts.com/icon -->
<!DOCTYPE svg PUBLIC "-//W3C//DTD SVG 1.1//EN" "http://www.w3.org/Graphics/SVG/1.1/DTD/svg11.dtd">
<svg version="1.1" xmlns="http://www.w3.org/2000/svg" xmlns:xlink="http://www.w3.org/1999/xlink" x="0px" y="0px" viewBox="0 0 1000 1000" enable-background="new 0 0 1000 1000" xml:space="preserve">
<metadata> Svg Vector Icons : http://www.onlinewebfonts.com/icon </metadata>
<g><path d="M500,10C171.9,10,63.2,359.8,282.7,574.9C502.2,790.1,500,990,500,990s-2.2-199.9,217.3-415.1C936.8,359.8,828.1,10,500,10z"/><path d="M480.1,430.9v122.5h-42.3V225.7h93.1c35.4,0,62.9,8.5,82.4,25.6c19.5,17.1,29.3,41.5,29.3,73.2c0,32.2-11.4,58.2-34.3,78.2c-22.9,20-51.4,29.4-85.7,28.2L480.1,430.9L480.1,430.9z M480.1,262.9v130.8h39.2c25.8,0,45.4-5.8,58.8-17.5c13.4-11.6,20.1-28.3,20.1-50c0-42.2-25-63.3-74.9-63.3L480.1,262.9L480.1,262.9z"/></g>
</svg>