<?xml version="1.0" encoding="utf-8"?>
<!-- Svg Vector Icons : http://www.onlinewebfonts.com/icon -->
<!DOCTYPE svg PUBLIC "-//W3C//DTD SVG 1.1//EN" "http://www.w3.org/Graphics/SVG/1.1/DTD/svg11.dtd">
<svg version="1.1" xmlns="http://www.w3.org/2000/svg" xmlns:xlink="http://www.w3.org/1999/xlink" x="0px" y="0px" viewBox="0 0 1000 1000" enable-background="new 0 0 1000 1000" xml:space="preserve" id="navBtn">
<metadata> Svg Vector Icons : http://www.onlinewebfonts.com/icon </metadata>
<g><path d="M829,542.9c61.3-79.2,108.3-146.4,108.3-222.4C937.3,197,833.5,97,705.4,97c-128.1,0-231.8,100.1-231.8,223.5c0,68.3,40.3,133.4,93,203.8l-63.4,20.3l-122.9-38.9c15.2-25.4,24.9-50.1,24.9-76.6c0-70.1-56.7-126.8-126.6-126.8c-69.9,0-126.6,56.8-126.6,126.8c0,29.3,12.8,57.6,31.4,86.9l-0.6,0.1L10,903l261.2-98.6L509,903l223.2-98.6L990,903L829,542.9L829,542.9z M705.5,211.9c62.2,0,112.6,48.6,112.6,108.6c0,60-50.5,108.6-112.6,108.6c-62.2,0-112.6-48.7-112.6-108.6C593,260.5,643.3,211.9,705.5,211.9L705.5,211.9z M278.7,367.6c33.9,0,61.5,27.6,61.5,61.6c0,33.9-27.6,61.6-61.5,61.6c-33.9,0-61.5-27.6-61.5-61.6C217.3,395.2,244.8,367.6,278.7,367.6L278.7,367.6z M727.6,745.9l-218.8,94.8l-233.2-94.8l-174,79.2l99.7-257.2l16.2-3.1c19.8,26.5,41.4,54.4,61.2,85.4c24.6-39.3,50.4-71.9,72.4-101.9l152.2,48.9l95.3-31c34.9,44.7,72.4,91.9,106.8,143.9c32.3-49.6,65.7-92.8,97-132.9l100.5,251L727.6,745.9L727.6,745.9z"/></g>
</svg>