<?xml version="1.0" encoding="utf-8"?>
<!-- Svg Vector Icons : http://www.onlinewebfonts.com/icon -->
<!DOCTYPE svg PUBLIC "-//W3C//DTD SVG 1.1//EN" "http://www.w3.org/Graphics/SVG/1.1/DTD/svg11.dtd">
<svg version="1.1" xmlns="http://www.w3.org/2000/svg" xmlns:xlink="http://www.w3.org/1999/xlink" x="0px" y="0px" viewBox="0 0 1000 1000" enable-background="new 0 0 1000 1000" xml:space="preserve" id="navBtn">
<metadata> Svg Vector Icons : http://www.onlinewebfonts.com/icon </metadata>
<g><path d="M806.8,187.9c7.5-4.3,13.8-8.5,18.1-14.9c4.3-6.4,6.4-12.8,6.4-20.2s-2.1-14.9-6.4-22.4s-10.7-13.8-18.1-17c-7.5-3.2-18.1-5.3-30.9-5.3h-58.6v174.7H777c10.7,0,20.2-1.1,27.7-3.2s13.8-4.3,18.1-8.5c5.3-3.2,9.6-13.8,12.8-20.2c3.2-6.4,5.3-13.8,5.3-22.4c0-9.6-3.2-18.1-8.5-25.6C824.9,195.3,816.4,191.1,806.8,187.9z M734.3,129.3h32c11.7,0,20.2,1.1,25.6,2.1c5.3,1.1,8.5,4.3,11.7,8.5c3.2,4.3,4.3,9.6,4.3,14.9c0,6.4-1.1,10.7-4.3,14.9s-7.5,6.4-12.8,8.5c-4.3,1.1-11.7,2.1-21.3,2.1h-35.2V129.3z M812.1,243.3c-2.1,4.3-5.3,7.5-8.5,9.6s-7.5,3.2-12.8,4.3c-3.2,1.1-8.5,1.1-14.9,1.1h-41.5v-57.5h38.3c10.7,0,19.2,1.1,24.5,3.2c5.3,2.1,10.7,5.3,13.8,9.6c3.2,4.3,5.3,9.6,5.3,16C815.3,233.7,814.2,239,812.1,243.3z M207.1,442.5l-66,173.6h36.2l13.8-41.5h67.1l14.9,41.5h37.3l-68.2-173.6H207.1z M201.7,540.5l22.4-59.7l23.4,59.7H201.7z M775.9,10c-118.2,0-214.1,95.9-214.1,213c0,23.4,4.3,45.8,10.7,66c33,163,206.7,267.4,206.7,267.4s202.4-122.5,209.8-311c1.1-6.4,1.1-13.8,1.1-22.4C990,105.9,894.1,10,775.9,10z M775.9,358.3c-84.2,0-152.3-68.2-152.3-152.3c0-84.2,68.2-152.3,152.3-152.3c84.2,0,152.3,68.2,152.3,152.3C928.2,290.2,860,358.3,775.9,358.3z M437.2,579.9c1.1-7.5,1.1-14.9,1.1-22.4c0-118.2-95.9-213-214.1-213C105.9,343.4,10,439.3,10,556.5c0,23.4,4.3,45.8,10.7,66c33,163,206.7,267.4,206.7,267.4S429.7,767.4,437.2,579.9z M71.8,540.5c0-84.2,68.2-152.3,152.3-152.3s152.3,68.2,152.3,152.3c0,83.1-68.2,151.3-152.3,151.3S71.8,623.6,71.8,540.5z M206,990l589.1-361.1v-39.4L206,950.6V990z"/></g>
</svg>