<?xml version="1.0" encoding="utf-8"?>
<!-- Generator: Adobe Illustrator 16.0.0, SVG Export Plug-In . SVG Version: 6.00 Build 0)  -->
<!DOCTYPE svg PUBLIC "-//W3C//DTD SVG 1.1//EN" "http://www.w3.org/Graphics/SVG/1.1/DTD/svg11.dtd">
<svg version="1.1" xmlns="http://www.w3.org/2000/svg" xmlns:xlink="http://www.w3.org/1999/xlink" x="0px" y="0px"
	 width="34.432px" height="34.457px" viewBox="1 1 34.432 34.457" enable-background="new 1 1 34.432 34.457" xml:space="preserve">
<g id="professor">
	<g transform="translate(1 1)">
		<path fill="#AAB1BA" d="M27.127,10.82l-1.169,2.331c0,0,0-1.169-1.169-1.169c0,0,0-1.75-1.169-2.919
			c-0.581-0.582-2.331-0.582-6.419-0.582s-5.832,0.582-5.832,0.582s-1.75,0.581-2.331,1.169C8.34,8.544,6.939,6.089,4.369,4.982
			c3.5-0.581,5.25,0.581,5.25,0.581s0.582-1.169,0-4.082c1.75,1.169,3.5,2.919,3.5,2.919s1.757-1.75,2.338-4.082
			c1.169,1.75,1.75,4.082,1.75,4.082s1.169-2.919,4.786-3.5c-1.75,2.331-1.169,4.669-1.169,4.669s2.215-2.331,5.134-2.919
			c-1.169,2.332-1.169,4.082-1.169,4.082s2.742-1.75,4.669-1.75C27.127,7.901,27.127,10.82,27.127,10.82"/>
		<path fill="#FFD0A1" d="M16.039,14.902c0-0.991-0.759-1.75-1.75-1.75c-0.992,0-1.75,0.759-1.75,1.75s0.759,1.75,1.75,1.75
			C15.279,16.652,16.039,15.893,16.039,14.902 M24.789,11.989c1.169,0,1.169,1.169,1.169,1.169v2.331
			c0,0.643-0.526,1.169-1.169,1.169c0,0-0.581,4.082-1.75,5.832c-0.697,1.107-1.75,3.5-5.832,3.5c-4.081,0-5.134-2.393-5.832-3.5
			c-1.169-1.75-1.75-5.832-1.75-5.832c-0.642,0-1.169-0.526-1.169-1.169v-2.331c0,0,0-1.169,1.169-1.169c0,0-0.177-0.759-0.581-1.75
			c0.581-0.581,2.331-1.168,2.331-1.168s1.75-0.581,5.832-0.581c4.082,0,5.832,0,6.419,0.581
			C24.789,10.239,24.789,11.989,24.789,11.989 M21.877,14.902c0-0.991-0.759-1.75-1.75-1.75c-0.991,0-1.75,0.759-1.75,1.75
			s0.759,1.75,1.75,1.75C21.118,16.652,21.877,15.893,21.877,14.902"/>
		<g>
			<path fill="#E4F2DE" d="M20.126,13.151c0.992,0,1.75,0.759,1.75,1.75s-0.759,1.75-1.75,1.75c-0.991,0-1.75-0.759-1.75-1.75
				S19.129,13.151,20.126,13.151z M14.289,13.151c0.991,0,1.75,0.759,1.75,1.75s-0.759,1.75-1.75,1.75
				c-0.992,0-1.75-0.759-1.75-1.75S13.297,13.151,14.289,13.151z"/>
			<polygon fill="#E4F2DE" points="21.754,28.903 20.708,34.153 13.707,34.153 12.654,28.903 12.716,28.903 21.699,28.903 			"/>
		</g>
		<path fill="#FFE079" d="M17.208,34.153c0.349,0,0.581-0.232,0.581-0.581s-0.232-0.581-0.581-0.581s-0.581,0.232-0.581,0.581
			S16.859,34.153,17.208,34.153z M17.208,30.653c0.349,0,0.581-0.232,0.581-0.581s-0.232-0.582-0.581-0.582
			s-0.581,0.233-0.581,0.582S16.859,30.653,17.208,30.653z"/>
		<path fill="#80D6FA" d="M21.877,28.322c8.17,0,11.143,1.812,11.67,3.5l0.581,2.331h-13.42l1.053-5.25L21.877,28.322z
			 M0.875,31.822c0.581-1.75,2.331-3.5,11.67-3.5l0.117,0.582l1.052,5.25H0.287L0.875,31.822z"/>
	</g>
	<g>
		<path fill="#51565F" d="M35.415,35.037l-0.581-2.331c-0.349-1.108-2.277-3.678-11.787-3.678c-0.062,0-0.116,0-0.178,0
			c-0.116,0-0.294,0.116-0.294,0.232l-1.169,5.832c0,0.178,0.062,0.294,0.232,0.349c0.178,0,0.294-0.062,0.349-0.232l1.107-5.599
			c9.332,0,10.911,2.509,11.144,3.268l0.581,2.331c0.062,0.116,0.178,0.232,0.294,0.232c0,0,0.062,0,0.062-0.062
			C35.36,35.331,35.477,35.215,35.415,35.037z"/>
		<path fill="#51565F" d="M5.252,6.269c2.413,1.046,3.78,3.343,4.505,5.086l0,0c0.233,0.567,0.39,1.06,0.479,1.367
			c-0.848,0.191-1.087,0.984-1.087,1.436v2.331c0,0.725,0.519,1.327,1.203,1.45c0.144,0.916,0.725,4.157,1.757,5.715
			c0.061,0.096,0.116,0.191,0.185,0.301c0.697,1.169,2.003,3.336,5.907,3.336c3.911,0,5.209-2.174,5.907-3.336
			c0.062-0.109,0.123-0.212,0.185-0.301c1.039-1.559,1.614-4.806,1.757-5.715c0.684-0.123,1.203-0.732,1.203-1.45v-2.331
			c0-0.157-0.027-0.362-0.109-0.567c-0.013-0.034-0.027-0.075-0.048-0.109c-0.02-0.034-0.034-0.075-0.055-0.109
			c-0.177-0.308-0.478-0.581-0.97-0.663c-0.035-0.355-0.13-1.005-0.438-1.675c-0.014-0.034-0.034-0.068-0.047-0.103
			c-0.035-0.069-0.069-0.137-0.103-0.198c-0.034-0.062-0.075-0.137-0.116-0.199c-0.042-0.068-0.089-0.129-0.13-0.198
			c-0.116-0.164-0.246-0.321-0.403-0.472c-0.677-0.677-2.297-0.677-6.631-0.677c-4.088,0-5.859,0.574-5.934,0.602
			c-0.164,0.055-0.246,0.226-0.191,0.389c0.055,0.164,0.226,0.246,0.39,0.199c0.014-0.007,1.176-0.376,3.732-0.513
			c0.199-0.014,0.404-0.021,0.615-0.027c0.212-0.007,0.438-0.014,0.67-0.021s0.472-0.007,0.718-0.007c3.801,0,5.708,0,6.201,0.492
			c1.06,1.06,1.074,2.687,1.074,2.7c0,0.171,0.137,0.308,0.308,0.308c0.027,0,0.047,0,0.075,0h0.007
			c0.047,0,0.088,0.007,0.129,0.014c0.007,0,0.014,0,0.021,0.007c0.013,0,0.027,0.007,0.041,0.007c0.007,0,0.021,0.007,0.027,0.007
			s0.021,0.007,0.027,0.007c0.014,0.007,0.021,0.007,0.034,0.014c0.007,0,0.014,0.007,0.021,0.007
			c0.014,0.007,0.027,0.014,0.048,0.021c0,0,0,0,0.007,0c0.397,0.198,0.431,0.656,0.431,0.773v2.331
			c0,0.472-0.383,0.861-0.862,0.861c-0.15,0-0.28,0.109-0.308,0.267c-0.006,0.041-0.588,4.033-1.702,5.708c0,0,0,0.007-0.007,0.007
			c-0.062,0.096-0.123,0.205-0.191,0.314c-0.684,1.135-1.819,3.042-5.38,3.042s-4.697-1.9-5.38-3.042
			c-0.068-0.116-0.13-0.219-0.191-0.314c0,0,0-0.007-0.007-0.007c-1.114-1.675-1.696-5.667-1.703-5.708
			c-0.021-0.15-0.15-0.267-0.307-0.267c-0.472,0-0.862-0.383-0.862-0.861v-2.331c0-0.144,0.055-0.862,0.862-0.862
			c0.095,0,0.185-0.041,0.239-0.116c0.062-0.075,0.082-0.171,0.062-0.26c-0.007-0.034-0.185-0.793-0.602-1.798l0,0l0,0
			c-0.67-1.627-1.88-3.705-3.932-4.95c2.68-0.219,4.048,0.649,4.061,0.657c0.075,0.047,0.165,0.062,0.253,0.041
			c0.082-0.021,0.157-0.082,0.198-0.158c0.021-0.047,0.527-1.087,0.158-3.541c1.49,1.08,2.844,2.427,2.858,2.441
			c0.123,0.123,0.314,0.123,0.437,0c0.068-0.069,1.498-1.511,2.215-3.555c0.889,1.586,1.354,3.391,1.354,3.411
			c0.034,0.13,0.144,0.226,0.28,0.233c0.13,0.006,0.26-0.069,0.308-0.191c0.007-0.027,0.978-2.366,3.822-3.152
			c-1.285,2.188-0.813,4.19-0.786,4.28c0.027,0.109,0.109,0.191,0.219,0.226c0.109,0.027,0.226-0.007,0.301-0.089
			c0.021-0.021,1.873-1.948,4.354-2.673c-0.909,2.071-0.923,3.561-0.923,3.63c0,0.109,0.062,0.219,0.157,0.267
			c0.096,0.055,0.219,0.048,0.315-0.014c0.02-0.014,2.105-1.333,3.835-1.641c-1.955,2.762-1.976,5.346-1.976,5.462
			c0,0.171,0.137,0.308,0.308,0.308c0.171,0,0.308-0.137,0.308-0.308c0-0.027,0.027-2.844,2.263-5.64
			c0.075-0.096,0.088-0.219,0.034-0.328c-0.048-0.109-0.157-0.178-0.28-0.178c-1.491,0-3.398,0.971-4.308,1.484
			c0.096-0.684,0.356-1.914,1.08-3.377c0.055-0.102,0.042-0.232-0.027-0.321c-0.068-0.089-0.191-0.137-0.307-0.117
			c-2.229,0.445-4.041,1.86-4.847,2.578c-0.048-0.8,0.048-2.325,1.183-3.842c0.075-0.103,0.082-0.239,0.021-0.342
			c-0.062-0.109-0.191-0.164-0.314-0.144c-2.66,0.431-4.054,2.051-4.649,2.994c-0.267-0.848-0.793-2.263-1.579-3.445
			c-0.069-0.103-0.191-0.15-0.308-0.13c-0.123,0.021-0.219,0.109-0.247,0.226c-0.438,1.75-1.579,3.186-2.044,3.719
			c-0.533-0.513-1.914-1.798-3.316-2.735c-0.102-0.068-0.239-0.068-0.341,0s-0.157,0.191-0.13,0.314
			c0.389,1.941,0.239,3.076,0.123,3.583C9.75,5.791,8.048,5.216,5.32,5.667c-0.137,0.021-0.239,0.13-0.252,0.267
			C5.047,6.084,5.123,6.214,5.252,6.269z"/>
		<path fill="#51565F" d="M21.126,13.919c0.937,0,1.75,0.643,1.983,1.518l0.021-0.014c-0.212-0.917-1.012-1.58-2.003-1.58
			c-0.923,0-1.688,0.581-1.955,1.401c0.007,0.007,0.021,0.007,0.027,0.014C19.493,14.445,20.251,13.919,21.126,13.919z"/>
		<path fill="#51565F" d="M23.178,16.073L23.17,16.08c-0.116,1.053-0.991,1.866-2.044,1.866c-1.107,0-2.044-0.937-2.044-2.044
			c0-0.014-0.007-0.035-0.014-0.055c0,0.02,0,0.034,0,0.055c0,1.155,0.902,2.058,2.058,2.058
			C22.221,17.959,23.089,17.146,23.178,16.073z"/>
		<path fill="#51565F" d="M21.126,17.365c0.814,0,1.457-0.643,1.457-1.457c0-0.813-0.643-1.456-1.457-1.456
			c-0.813,0-1.456,0.643-1.456,1.456C19.67,16.722,20.306,17.365,21.126,17.365z M21.126,14.459c0.821,0,1.443,0.622,1.443,1.443
			c0,0.82-0.622,1.442-1.443,1.442c-0.82,0-1.442-0.622-1.442-1.442C19.684,15.081,20.299,14.459,21.126,14.459z"/>
		<path fill="#51565F" d="M15.289,14.445c-0.813,0-1.457,0.643-1.457,1.457s0.643,1.456,1.457,1.456s1.456-0.643,1.456-1.456
			S16.108,14.445,15.289,14.445z M15.289,17.344c-0.821,0-1.443-0.622-1.443-1.442c0-0.821,0.622-1.443,1.443-1.443
			c0.82,0,1.442,0.622,1.442,1.443C16.731,16.722,16.115,17.344,15.289,17.344z"/>
		<path fill="#51565F" d="M15.289,13.919c0.875,0,1.634,0.581,1.928,1.34c0.007-0.006,0.021-0.006,0.027-0.014
			c-0.267-0.82-1.032-1.401-1.955-1.401c-0.992,0-1.792,0.663-2.003,1.58l0.02,0.014C13.538,14.562,14.358,13.919,15.289,13.919z"/>
		<path fill="#51565F" d="M15.289,17.946c-1.053,0-1.928-0.813-2.044-1.866l-0.007-0.007c0.082,1.073,0.957,1.887,2.051,1.887
			c1.155,0,2.058-0.903,2.058-2.058c0-0.021,0-0.035,0-0.055c-0.007,0.02-0.014,0.034-0.014,0.055
			C17.333,17.009,16.396,17.946,15.289,17.946z"/>
		<path fill="#51565F" d="M13.832,29.26c-0.061-0.116-0.178-0.232-0.294-0.232c-9.448,0-11.314,1.812-11.957,3.733L1,35.092
			c0,0.178,0.062,0.294,0.232,0.349h0.061c0.117,0,0.233-0.116,0.294-0.178l0.581-2.331c0.526-1.634,2.276-3.323,11.144-3.323
			l1.107,5.599c0.061,0.178,0.177,0.294,0.348,0.232c0.178-0.062,0.294-0.178,0.232-0.349L13.832,29.26z"/>
		<path fill="#51565F" d="M18.208,33.697c-0.465,0-0.875,0.41-0.875,0.875s0.41,0.875,0.875,0.875s0.875-0.411,0.875-0.875
			S18.672,33.697,18.208,33.697z M18.208,34.866c-0.178,0-0.294-0.116-0.294-0.294s0.116-0.294,0.294-0.294s0.294,0.116,0.294,0.294
			S18.378,34.866,18.208,34.866z"/>
		<path fill="#51565F" d="M18.208,30.197c-0.465,0-0.875,0.41-0.875,0.875c0,0.465,0.41,0.875,0.875,0.875s0.875-0.41,0.875-0.875
			C19.083,30.607,18.672,30.197,18.208,30.197z M18.208,31.366c-0.178,0-0.294-0.117-0.294-0.294c0-0.178,0.116-0.294,0.294-0.294
			s0.294,0.116,0.294,0.294C18.501,31.25,18.378,31.366,18.208,31.366z"/>
		<path fill="#51565F" d="M17.626,23.196c-0.178,0-0.294,0.116-0.294,0.294s0.116,0.294,0.294,0.294h1.169
			c0.178,0,0.294-0.116,0.294-0.294s-0.116-0.294-0.294-0.294H17.626z"/>
		<path fill="#51565F" d="M21.414,21.74c0-0.178-0.116-0.294-0.294-0.294c0,0-1.634-0.062-2.687-1.634
			c-0.116-0.177-0.349-0.177-0.465,0c-1.053,1.572-2.625,1.634-2.687,1.634c-0.178,0-0.294,0.116-0.294,0.294
			s0.116,0.294,0.294,0.294c0.062,0,1.689-0.062,2.919-1.572c1.224,1.572,2.857,1.572,2.919,1.572
			C21.298,22.027,21.414,21.911,21.414,21.74z"/>
		<path fill="#51565F" d="M21.126,17.946c1.053,0,1.928-0.813,2.044-1.866l0.007-0.007l1.627-1.101
			c0.062-0.061,0.116-0.116,0.116-0.232c0-0.062,0-0.116-0.062-0.178c-0.116-0.116-0.294-0.177-0.41-0.062l-1.319,0.923
			l-0.021,0.014c-0.232-0.875-1.053-1.518-1.983-1.518c-0.875,0-1.634,0.526-1.928,1.34c-0.007-0.006-0.021-0.006-0.027-0.014
			c-0.226-0.109-0.513-0.164-0.964-0.164c-0.444,0-0.731,0.055-0.964,0.164c-0.007,0.007-0.021,0.007-0.027,0.014
			c-0.294-0.759-1.053-1.34-1.928-1.34c-0.937,0-1.75,0.643-1.983,1.518l-0.02-0.014l-1.32-0.923
			c-0.116-0.116-0.294-0.061-0.41,0.062c-0.062,0.062-0.062,0.116-0.062,0.178c0,0.062,0.062,0.178,0.117,0.232l1.627,1.101
			l0.007,0.007c0.116,1.053,0.991,1.866,2.044,1.866c1.107,0,2.044-0.937,2.044-2.044c0-0.014,0.007-0.035,0.014-0.055
			c0.062-0.109,0.308-0.24,0.861-0.24s0.8,0.13,0.861,0.24c0.007,0.02,0.014,0.034,0.014,0.055
			C19.083,17.009,20.012,17.946,21.126,17.946z M21.126,14.445c0.814,0,1.457,0.643,1.457,1.457s-0.643,1.456-1.457,1.456
			c-0.813,0-1.456-0.643-1.456-1.456S20.306,14.445,21.126,14.445z M15.289,17.365c-0.813,0-1.457-0.643-1.457-1.457
			c0-0.813,0.643-1.456,1.457-1.456s1.456,0.643,1.456,1.456C16.744,16.722,16.108,17.365,15.289,17.365z"/>
	</g>
</g>
<g id="Stairs_1_">
	<g id="Stairs">
		<path display="none" fill-rule="evenodd" clip-rule="evenodd" fill="#231815" d="M1,11.494C1,5.699,6.114,1,12.423,1
			c6.31,0,11.424,4.699,11.424,10.494c0,5.795-5.114,10.494-11.424,10.494C6.114,21.987,1,17.289,1,11.494"/>
		<ellipse fill-rule="evenodd" clip-rule="evenodd" fill="#231815" cx="12.417" cy="11.487" rx="10.493" ry="9.64"/>
		
			<ellipse fill="none" stroke="#FFFFFF" stroke-width="0.6388" stroke-miterlimit="22.9256" cx="12.417" cy="11.487" rx="10.493" ry="9.64"/>
		<polygon fill="#FFFFFF" points="7.938,9.085 7.938,4.929 7.938,4.802 8.074,4.802 9.355,4.803 9.491,4.803 9.491,4.93 
			9.491,7.783 11.49,7.783 11.626,7.783 11.626,7.788 11.827,7.788 11.965,7.788 11.965,7.914 11.965,10.781 13.964,10.781 
			14.099,10.781 14.099,10.785 14.301,10.785 14.438,10.785 14.438,10.913 14.438,13.781 16.436,13.781 16.574,13.781 
			16.574,13.786 16.774,13.786 16.911,13.786 16.911,13.913 16.911,18.06 16.911,18.186 16.774,18.186 15.493,18.186 15.357,18.186 
			15.357,18.06 15.357,15.211 13.02,15.211 12.881,15.211 12.881,15.083 12.881,12.21 10.546,12.21 10.409,12.21 10.409,12.084 
			10.409,9.211 8.074,9.211 7.938,9.211 		"/>
	</g>
</g>
</svg>
