<?xml version="1.0" encoding="utf-8"?>
<!-- Svg Vector Icons : http://www.onlinewebfonts.com/icon -->
<!DOCTYPE svg PUBLIC "-//W3C//DTD SVG 1.1//EN" "http://www.w3.org/Graphics/SVG/1.1/DTD/svg11.dtd">
<svg version="1.1" xmlns="http://www.w3.org/2000/svg" xmlns:xlink="http://www.w3.org/1999/xlink" x="0px" y="0px" viewBox="0 0 1000 1000" enable-background="new 0 0 1000 1000" xml:space="preserve" id="search">
<metadata> Svg Vector Icons : http://www.onlinewebfonts.com/icon </metadata>
<g><path d="M543.9,101.6c-122.1-122.1-320.1-122.1-442.3,0c-122.1,122.1-122.1,320.1,0,442.3c122.1,122.1,320.1,122.1,442.3,0C666,421.7,666,223.7,543.9,101.6z M146,499.4c-97.6-97.6-97.6-255.8,0-353.4c97.6-97.6,255.8-97.6,353.4,0c97.6,97.6,97.6,255.8,0,353.4C401.8,597,243.6,597,146,499.4z"/><path d="M632.8,562.1l-44.6-44.6c-9.7,13.4-20.5,26.1-32.5,38.2c-12,12-24.8,22.9-38.2,32.5l44.6,44.6c13-10.2,25.5-21.2,37.5-33.2C611.5,587.6,622.6,575.1,632.8,562.1z"/><path d="M985.1,914.4l-338.1-338c-9.7,13.4-20.5,26.1-32.5,38.2c-12,12-24.8,22.9-38.2,32.5l338,338c6.5,6.5,17.1,6.5,23.6,0l47.1-47.1C991.6,931.5,991.6,920.9,985.1,914.4z"/></g>
</svg>