<?xml version="1.0" encoding="utf-8"?>
<!-- Svg Vector Icons : http://www.onlinewebfonts.com/icon -->
<!DOCTYPE svg PUBLIC "-//W3C//DTD SVG 1.1//EN" "http://www.w3.org/Graphics/SVG/1.1/DTD/svg11.dtd">
<svg version="1.1" xmlns="http://www.w3.org/2000/svg" xmlns:xlink="http://www.w3.org/1999/xlink" x="0px" y="0px" viewBox="0 0 1000 1000" enable-background="new 0 0 1000 1000" xml:space="preserve" id="w-washroom">
<metadata> Svg Vector Icons : http://www.onlinewebfonts.com/icon </metadata>
<g><path d="M591.9,101.9c0,50.7-41.1,91.9-91.9,91.9s-91.9-41.1-91.9-91.9c0-50.7,41.1-91.9,91.9-91.9S591.9,51.1,591.9,101.9z"/><path d="M728.7,500l46.9-34L648.1,268.8c-5.7-8.6-15.3-13.8-25.6-13.8h-245c-10.3,0-19.9,5.2-25.6,13.8L224.4,466l46.9,34l105.9-137.4l36.8,85.9L285.6,683.8H403L423.5,990h61.3V683.8h30.6V990h61.3L597,683.8h117.4L586,448.5l36.8-85.9L728.7,500L728.7,500z"/></g>
</svg>